<svg width="290" height="350" viewBox="0 0 290 350" fill="none" xmlns="http://www.w3.org/2000/svg"><path d="M10 230H0v10h10v-10zM20 230H10v10h10v-10zM10 240H0v10h10v-10zM20 240H10v10h10v-10zM10 250H0v10h10v-10zM20 250H10v10h10v-10zM10 260H0v10h10v-10zM20 260H10v10h10v-10zM10 270H0v10h10v-10zM20 270H10v10h10v-10zM30 270H20v10h10v-10zM40 270H30v10h10v-10zM50 270H40v10h10v-10zM60 270H50v10h10v-10zM70 270H60v10h10v-10zM100 270H90v10h10v-10zM110 270h-10v10h10v-10zM120 270h-10v10h10v-10zM130 270h-10v10h10v-10zM140 270h-10v10h10v-10zM150 270h-10v10h10v-10zM180 270h-10v10h10v-10zM190 270h-10v10h10v-10zM200 270h-10v10h10v-10zM210 270h-10v10h10v-10zM240 270h-10v10h10v-10zM250 270h-10v10h10v-10zM260 270h-10v10h10v-10zM270 270h-10v10h10v-10zM280 270h-10v10h10v-10zM290 270h-10v10h10v-10zM10 280H0v10h10v-10zM20 280H10v10h10v-10zM30 280H20v10h10v-10zM40 280H30v10h10v-10zM50 280H40v10h10v-10zM60 280H50v10h10v-10zM70 280H60v10h10v-10zM100 280H90v10h10v-10zM110 280h-10v10h10v-10zM120 280h-10v10h10v-10zM130 280h-10v10h10v-10zM140 280h-10v10h10v-10zM150 280h-10v10h10v-10zM180 280h-10v10h10v-10zM190 280h-10v10h10v-10zM200 280h-10v10h10v-10zM210 280h-10v10h10v-10zM240 280h-10v10h10v-10zM250 280h-10v10h10v-10zM260 280h-10v10h10v-10zM270 280h-10v10h10v-10zM280 280h-10v10h10v-10zM290 280h-10v10h10v-10zM10 290H0v10h10v-10zM20 290H10v10h10v-10zM60 290H50v10h10v-10zM70 290H60v10h10v-10zM100 290H90v10h10v-10zM110 290h-10v10h10v-10zM140 290h-10v10h10v-10zM150 290h-10v10h10v-10zM180 290h-10v10h10v-10zM190 290h-10v10h10v-10zM240 290h-10v10h10v-10zM250 290h-10v10h10v-10zM280 290h-10v10h10v-10zM290 290h-10v10h10v-10zM10 300H0v10h10v-10zM20 300H10v10h10v-10zM60 300H50v10h10v-10zM70 300H60v10h10v-10zM100 300H90v10h10v-10zM110 300h-10v10h10v-10zM140 300h-10v10h10v-10zM150 300h-10v10h10v-10zM180 300h-10v10h10v-10zM190 300h-10v10h10v-10zM240 300h-10v10h10v-10zM250 300h-10v10h10v-10zM280 300h-10v10h10v-10zM290 300h-10v10h10v-10zM10 310H0v10h10v-10zM20 310H10v10h10v-10zM60 310H50v10h10v-10zM70 310H60v10h10v-10zM100 310H90v10h10v-10zM110 310h-10v10h10v-10zM140 310h-10v10h10v-10zM150 310h-10v10h10v-10zM180 310h-10v10h10v-10zM190 310h-10v10h10v-10zM240 310h-10v10h10v-10zM250 310h-10v10h10v-10zM260 310h-10v10h10v-10zM270 310h-10v10h10v-10zM280 310h-10v10h10v-10zM290 310h-10v10h10v-10zM10 320H0v10h10v-10zM20 320H10v10h10v-10zM60 320H50v10h10v-10zM70 320H60v10h10v-10zM100 320H90v10h10v-10zM110 320h-10v10h10v-10zM140 320h-10v10h10v-10zM150 320h-10v10h10v-10zM180 320h-10v10h10v-10zM190 320h-10v10h10v-10zM240 320h-10v10h10v-10zM250 320h-10v10h10v-10zM260 320h-10v10h10v-10zM270 320h-10v10h10v-10zM280 320h-10v10h10v-10zM290 320h-10v10h10v-10zM10 330H0v10h10v-10zM20 330H10v10h10v-10zM60 330H50v10h10v-10zM70 330H60v10h10v-10zM100 330H90v10h10v-10zM110 330h-10v10h10v-10zM120 330h-10v10h10v-10zM130 330h-10v10h10v-10zM140 330h-10v10h10v-10zM150 330h-10v10h10v-10zM180 330h-10v10h10v-10zM190 330h-10v10h10v-10zM240 330h-10v10h10v-10zM250 330h-10v10h10v-10zM280 330h-10v10h10v-10zM290 330h-10v10h10v-10zM10 340H0v10h10v-10zM20 340H10v10h10v-10zM60 340H50v10h10v-10zM70 340H60v10h10v-10zM100 340H90v10h10v-10zM110 340h-10v10h10v-10zM120 340h-10v10h10v-10zM130 340h-10v10h10v-10zM140 340h-10v10h10v-10zM150 340h-10v10h10v-10zM180 340h-10v10h10v-10zM190 340h-10v10h10v-10zM240 340h-10v10h10v-10zM250 340h-10v10h10v-10zM280 340h-10v10h10v-10zM290 340h-10v10h10v-10z" fill="#301C11"/><path d="M128 0h-16v16h16V0z" fill="#C26F30"/><path d="M144 0h-16v16h16V0zM160 0h-16v16h16V0zM192 0h-16v16h16V0z" fill="#755634"/><path d="M208 0h-16v16h16V0z" fill="#C26F30"/><path d="M128 16h-16v16h16V16zM144 16h-16v16h16V16zM160 16h-16v16h16V16zM176 16h-16v16h16V16zM192 16h-16v16h16V16z" fill="#755634"/><path d="M208 16h-16v16h16V16z" fill="#B15D30"/><path d="M224 16h-16v16h16V16z" fill="#C26F30"/><path d="M112 32H96v16h16V32zM128 32h-16v16h16V32zM144 32h-16v16h16V32zM160 32h-16v16h16V32zM176 32h-16v16h16V32zM192 32h-16v16h16V32zM208 32h-16v16h16V32zM224 32h-16v16h16V32z" fill="#8C6C49"/><path d="M240 32h-16v16h16V32zM256 32h-16v16h16V32z" fill="#664929"/><path d="M80 48H64v16h16V48zM96 48H80v16h16V48zM112 48H96v16h16V48zM128 48h-16v16h16V48zM144 48h-16v16h16V48zM160 48h-16v16h16V48zM176 48h-16v16h16V48zM192 48h-16v16h16V48zM208 48h-16v16h16V48z" fill="#755634"/><path d="M224 48h-16v16h16V48zM240 48h-16v16h16V48zM256 48h-16v16h16V48z" fill="#664929"/><path d="M32 64H16v16h16V64zM48 64H32v16h16V64z" fill="#C49734"/><path d="M112 64H96v16h16V64z" fill="#D18835"/><path d="M128 64h-16v16h16V64z" fill="#301C11"/><path d="M144 64h-16v16h16V64zM160 64h-16v16h16V64zM176 64h-16v16h16V64z" fill="#D18835"/><path d="M192 64h-16v16h16V64z" fill="#301C11"/><path d="M208 64h-16v16h16V64zM224 64h-16v16h16V64z" fill="#D18835"/><path d="M240 64h-16v16h16V64z" fill="#C26F30"/><path d="M16 80H0v16h16V80z" fill="#C49734"/><path d="M32 80H16v16h16V80z" fill="#BFD7FD"/><path d="M48 80H32v16h16V80z" fill="#fff"/><path d="M64 80H48v16h16V80z" fill="#C49734"/><path d="M96 80H80v16h16V80z" fill="#D18835"/><path d="M112 80H96v16h16V80zM128 80h-16v16h16V80zM144 80h-16v16h16V80z" fill="#4E2824"/><path d="M160 80h-16v16h16V80z" fill="#F7D1A0"/><path d="M176 80h-16v16h16V80zM192 80h-16v16h16V80zM208 80h-16v16h16V80zM224 80h-16v16h16V80zM240 80h-16v16h16V80z" fill="#D18835"/><path d="M256 80h-16v16h16V80z" fill="#C26F30"/><path d="M16 96H0v16h16V96z" fill="#C49734"/><path d="M32 96H16v16h16V96zM48 96H32v16h16V96z" fill="#BFD7FD"/><path d="M64 96H48v16h16V96z" fill="#B28424"/><path d="M96 96H80v16h16V96z" fill="#D18835"/><path d="M112 96H96v16h16V96z" fill="#F4D9B8"/><path d="M128 96h-16v16h16V96z" fill="#4E2824"/><path d="M144 96h-16v16h16V96zM160 96h-16v16h16V96zM176 96h-16v16h16V96z" fill="#F7D1A0"/><path d="M192 96h-16v16h16V96z" fill="#301C11"/><path d="M208 96h-16v16h16V96zM224 96h-16v16h16V96zM240 96h-16v16h16V96z" fill="#D18835"/><path d="M256 96h-16v16h16V96z" fill="#C26F30"/><path d="M32 112H16v16h16v-16z" fill="#C49734"/><path d="M48 112H32v16h16v-16z" fill="#B28424"/><path d="M96 112H80v16h16v-16z" fill="#D18835"/><path d="M112 112H96v16h16v-16z" fill="#301C11"/><path d="M128 112h-16v16h16v-16z" fill="#F7D1A0"/><path d="M144 112h-16v16h16v-16zM160 112h-16v16h16v-16zM176 112h-16v16h16v-16z" fill="#301C11"/><path d="M192 112h-16v16h16v-16zM208 112h-16v16h16v-16z" fill="#F7D1A0"/><path d="M224 112h-16v16h16v-16zM240 112h-16v16h16v-16z" fill="#D18835"/><path d="M256 112h-16v16h16v-16z" fill="#B15D30"/><path d="M48 128H32v16h16v-16z" fill="#2C2722"/><path d="M96 128H80v16h16v-16z" fill="#8C6C49"/><path d="M112 128H96v16h16v-16z" fill="#F4D9B8"/><path d="M128 128h-16v16h16v-16zM144 128h-16v16h16v-16zM160 128h-16v16h16v-16zM176 128h-16v16h16v-16zM192 128h-16v16h16v-16zM208 128h-16v16h16v-16z" fill="#F7D1A0"/><path d="M224 128h-16v16h16v-16zM240 128h-16v16h16v-16z" fill="#8C6C49"/><path d="M256 128h-16v16h16v-16z" fill="#755634"/><path d="M48 144H32v16h16v-16zM64 144H48v16h16v-16z" fill="#D18835"/><path d="M112 144H96v16h16v-16zM128 144h-16v16h16v-16zM144 144h-16v16h16v-16z" fill="#8C6C49"/><path d="M160 144h-16v16h16v-16zM176 144h-16v16h16v-16z" fill="#F7D1A0"/><path d="M192 144h-16v16h16v-16zM208 144h-16v16h16v-16zM224 144h-16v16h16v-16z" fill="#8C6C49"/><path d="M240 144h-16v16h16v-16zM256 144h-16v16h16v-16z" fill="#664929"/><path d="M48 160H32v16h16v-16z" fill="#D18835"/><path d="M64 160H48v16h16v-16zM80 160H64v16h16v-16z" fill="#8C6C49"/><path d="M112 160H96v16h16v-16zM128 160h-16v16h16v-16zM144 160h-16v16h16v-16z" fill="#755634"/><path d="M160 160h-16v16h16v-16z" fill="#D95763"/><path d="M176 160h-16v16h16v-16zM192 160h-16v16h16v-16zM208 160h-16v16h16v-16zM224 160h-16v16h16v-16zM240 160h-16v16h16v-16z" fill="#755634"/><path d="M48 176H32v16h16v-16z" fill="#2C2722"/><path d="M64 176H48v16h16v-16zM80 176H64v16h16v-16zM96 176H80v16h16v-16zM112 176H96v16h16v-16zM128 176h-16v16h16v-16zM144 176h-16v16h16v-16z" fill="#8C6C49"/><path d="M160 176h-16v16h16v-16z" fill="#75190B"/><path d="M176 176h-16v16h16v-16z" fill="#BEB9A5"/><path d="M192 176h-16v16h16v-16zM208 176h-16v16h16v-16zM224 176h-16v16h16v-16z" fill="#8C6C49"/><path d="M240 176h-16v16h16v-16z" fill="#664929"/><path d="M80 192H64v16h16v-16z" fill="#755634"/><path d="M96 192H80v16h16v-16zM112 192H96v16h16v-16zM128 192h-16v16h16v-16zM144 192h-16v16h16v-16z" fill="#8C6C49"/><path d="M160 192h-16v16h16v-16z" fill="#D95763"/><path d="M176 192h-16v16h16v-16z" fill="#BEB9A5"/><path d="M192 192h-16v16h16v-16zM208 192h-16v16h16v-16zM224 192h-16v16h16v-16z" fill="#8C6C49"/><path d="M240 192h-16v16h16v-16z" fill="#755634"/><path d="M128 208h-16v16h16v-16zM144 208h-16v16h16v-16z" fill="#8C6C49"/><path d="M160 208h-16v16h16v-16z" fill="#D95763"/><path d="M176 208h-16v16h16v-16z" fill="#BEB9A5"/><path d="M192 208h-16v16h16v-16zM208 208h-16v16h16v-16zM224 208h-16v16h16v-16zM240 208h-16v16h16v-16zM128 224h-16v16h16v-16zM144 224h-16v16h16v-16zM192 224h-16v16h16v-16zM208 224h-16v16h16v-16zM224 224h-16v16h16v-16z" fill="#8C6C49"/></svg>